<?xml version="1.0" encoding="UTF-8"?>
<!DOCTYPE svg PUBLIC "-//W3C//DTD SVG 1.1//EN" "http://www.w3.org/Graphics/SVG/1.1/DTD/svg11.dtd">
<!-- Creator: CorelDRAW X8 -->
<svg xmlns="http://www.w3.org/2000/svg" xml:space="preserve" width="1.66666in" height="2.16666in" version="1.1" style="shape-rendering:geometricPrecision; text-rendering:geometricPrecision; image-rendering:optimizeQuality; fill-rule:evenodd; clip-rule:evenodd"
viewBox="0 0 1667 2167"
 xmlns:xlink="http://www.w3.org/1999/xlink">
 <defs>
  <style type="text/css">
   <![CDATA[
    .fil0 {fill:#0192CE}
    .fil1 {fill:#50B847}
   ]]>
  </style>
 </defs>
 <g id="Layer_x0020_1">
  <metadata id="CorelCorpID_0Corel-Layer"/>
  <g id="_2642659186704">
   <path class="fil0" d="M717 1148c32,0 43,-43 53,-69l67 -185c6,-16 10,-29 19,-43 6,-10 7,-12 15,-17 31,-21 72,1 69,29l-47 127c-7,22 -13,41 -20,66 -61,212 -96,338 -130,571 -8,53 -12,99 -19,154 -5,38 -25,358 9,383 0,-24 9,-52 14,-76 5,-27 11,-51 16,-74 68,-318 131,-548 251,-848 57,-143 110,-238 182,-369 55,-102 116,-186 179,-278l38 -53c77,-104 135,-163 205,-252 0,0 68,-66 28,-66 -44,0 -365,263 -445,323 -64,48 -224,161 -303,161 -67,0 -89,-39 -105,-96 -24,-84 -30,-174 -33,-262 -1,-28 -7,-59 -3,-94 3,-26 1,-65 5,-93 6,-38 -4,-58 -10,-85 -22,1 -26,9 -38,45 -24,74 -59,343 -69,435 -23,227 -5,399 37,614 5,22 6,52 35,52z"/>
   <path class="fil1" d="M536 747c0,290 -231,408 -385,148 -21,-36 -40,-68 -63,-102l-53 -69c-10,-11 -11,-15 -27,-17 1,33 46,131 60,169l178 515c50,150 170,489 263,646 5,8 2,4 7,9l-106 -450c-29,-116 -53,-221 -72,-340 -8,-47 -12,-79 24,-104 15,65 39,170 75,221 44,62 122,49 171,-26 55,-84 22,-221 -3,-307 -23,-78 -18,-203 -29,-283 -2,-16 0,-31 -3,-48 -2,-16 -3,-38 -5,-50 -4,-35 -11,-157 -36,-176 -16,33 4,204 4,264zm-56 304c49,-7 98,52 110,134 13,81 -16,153 -64,160 -48,8 -98,-52 -110,-133 -13,-81 16,-153 64,-161z"/>
   <path class="fil0" d="M835 337c0,71 31,169 98,169 33,0 61,-12 82,-36 127,-141 98,-405 -11,-405 -39,0 -49,5 -83,39 -21,20 -31,35 -45,62 -21,41 -41,111 -41,171z"/>
   <path class="fil1" d="M213 707c0,53 14,114 31,150 68,145 193,96 208,-60 4,-35 2,-45 1,-78 -5,-152 -141,-284 -214,-135 -15,30 -26,80 -26,123z"/>
  </g>
 </g>
</svg>
